<svg id="Layer_1" version="1.1" viewBox="0 0 128 128" xml:space="preserve" xmlns="http://www.w3.org/2000/svg" enable-background="new 0 0 128 128"><path d="M11 17h68v83H11z" fill="#7470c7" class="fill-ffffff"></path><path d="M11 17h68v83H11z" fill="none" stroke="#242c88" stroke-width="2" stroke-linecap="round" stroke-linejoin="round" stroke-miterlimit="10" class="stroke-242c88"></path><path d="M33 46H23c-1.1 0-2-.9-2-2V34c0-1.1.9-2 2-2h10c1.1 0 2 .9 2 2v10c0 1.1-.9 2-2 2zM32.8 66H23c-1.1 0-2-.9-2-2V54c0-1.1.9-2 2-2h10c1.1 0 2 .9 2 2v9.8c0 1.2-1 2.2-2.2 2.2zM33 87H23c-1.1 0-2-.9-2-2V75c0-1.1.9-2 2-2h10c1.1 0 2 .9 2 2v10c0 1.1-.9 2-2 2z" fill="#83d689" class="fill-83d689"></path><path d="M33 46H23c-1.1 0-2-.9-2-2V34c0-1.1.9-2 2-2h10c1.1 0 2 .9 2 2v10c0 1.1-.9 2-2 2zM32.8 66H23c-1.1 0-2-.9-2-2V54c0-1.1.9-2 2-2h10c1.1 0 2 .9 2 2v9.8c0 1.2-1 2.2-2.2 2.2zM33 87H23c-1.1 0-2-.9-2-2V75c0-1.1.9-2 2-2h10c1.1 0 2 .9 2 2v10c0 1.1-.9 2-2 2z" fill="none" stroke="#242c88" stroke-width="2" stroke-linecap="round" stroke-linejoin="round" stroke-miterlimit="10" class="stroke-242c88"></path><path d="M79 101V24H28c-1.1 0-2 .9-2 2v75h53z" opacity=".2" fill="#242c88" class="fill-242c88"></path><path d="M31 29h68v83H31z" fill="#7470c7" class="fill-ffffff"></path><path d="M31 29h68v83H31z" fill="none" stroke="#242c88" stroke-width="2" stroke-linecap="round" stroke-linejoin="round" stroke-miterlimit="10" class="stroke-242c88"></path><path d="M63 53h12M63 48h24" opacity=".2" fill="none" stroke="#242c88" stroke-width="2" stroke-linecap="round" stroke-linejoin="round" stroke-miterlimit="10" class="stroke-242c88"></path><path d="M54 58H44c-1.1 0-2-.9-2-2V46c0-1.1.9-2 2-2h10c1.1 0 2 .9 2 2v10c0 1.1-.9 2-2 2z" fill="#83d689" class="fill-83d689"></path><path d="m45.3 51.7 2.9 2.7 5.7-5.8" fill="none" stroke="#242c88" stroke-width="2" stroke-linecap="round" stroke-linejoin="round" stroke-miterlimit="10" class="stroke-242c88"></path><path d="M63 74h12M63 68h24" opacity=".2" fill="none" stroke="#242c88" stroke-width="2" stroke-linecap="round" stroke-linejoin="round" stroke-miterlimit="10" class="stroke-242c88"></path><path d="M54 78H44c-1.1 0-2-.9-2-2V66c0-1.1.9-2 2-2h9.8c1.2 0 2.2 1 2.2 2.2V76c0 1.1-.9 2-2 2z" fill="#83d689" class="fill-83d689"></path><path d="m45.3 71.9 2.9 2.7 5.7-5.7" fill="none" stroke="#242c88" stroke-width="2" stroke-linecap="round" stroke-linejoin="round" stroke-miterlimit="10" class="stroke-242c88"></path><path d="M63 94h12M63 89h24" opacity=".2" fill="none" stroke="#242c88" stroke-width="2" stroke-linecap="round" stroke-linejoin="round" stroke-miterlimit="10" class="stroke-242c88"></path><path d="M54 98H44c-1.1 0-2-.9-2-2V86c0-1.1.9-2 2-2h10c1.1 0 2 .9 2 2v10c0 1.1-.9 2-2 2z" fill="#83d689" class="fill-83d689"></path><path d="M54 58H44c-1.1 0-2-.9-2-2V46c0-1.1.9-2 2-2h10c1.1 0 2 .9 2 2v10c0 1.1-.9 2-2 2zM54 78H44c-1.1 0-2-.9-2-2V66c0-1.1.9-2 2-2h9.8c1.2 0 2.2 1 2.2 2.2V76c0 1.1-.9 2-2 2zM54 98H44c-1.1 0-2-.9-2-2V86c0-1.1.9-2 2-2h10c1.1 0 2 .9 2 2v10c0 1.1-.9 2-2 2z" fill="none" stroke="#242c88" stroke-width="2" stroke-linecap="round" stroke-linejoin="round" stroke-miterlimit="10" class="stroke-242c88"></path><path d="M99 57.6 65.2 77.5 53.6 94.9l20.8-1.8L99 78.6z" opacity=".2" fill="#242c88" class="fill-242c88"></path><path d="M111.4 50.1 73.8 87.7l-19.7 6.9L61 74.9l37.6-37.6z" fill="#7470c7" class="fill-ffffff"></path><path transform="rotate(-45.001 86.22 62.528)" d="M59.6 53.5h53.2v18.1H59.6z" fill="#ffc408" class="fill-ffc408"></path><path transform="rotate(-45.001 90.734 67.042)" d="M64.1 64.4h53.2v5.3H64.1z" opacity=".2" fill="#242c88" class="fill-242c88"></path><path d="m57.1 86-3 8.4 8.4-3z" fill="#5e61a3" class="fill-5e61a3"></path><path d="M111.4 50.1 73.8 87.7l-19.7 6.9L61 74.9l37.6-37.6z" fill="none" stroke="#242c88" stroke-width="2" stroke-linecap="round" stroke-linejoin="round" stroke-miterlimit="10" class="stroke-242c88"></path><path d="m111.4 50.1 6-6c1.7-1.7 1.7-4.4 0-6l-6.8-6.8c-1.7-1.7-4.4-1.7-6 0l-6 6 12.8 12.8z" fill="#f3877e" class="fill-f3877e"></path><path d="m111.4 50.1 6-6c1.7-1.7 1.7-4.4 0-6l-6.8-6.8c-1.7-1.7-4.4-1.7-6 0l-6 6 12.8 12.8zM80.6 73.4l26.3-26.3M70 84l6.1-6.1" fill="none" stroke="#242c88" stroke-width="2" stroke-linecap="round" stroke-linejoin="round" stroke-miterlimit="10" class="stroke-242c88"></path><path transform="rotate(-45.001 104.652 44.097)" d="M100.9 35.1h7.4v18.1h-7.4z" fill="#7470c7" class="fill-ffffff"></path><path transform="rotate(-45.001 104.652 44.097)" d="M100.9 35.1h7.4v18.1h-7.4z" opacity=".2" fill="#242c88" class="fill-242c88"></path><path transform="rotate(-45.001 104.652 44.097)" d="M100.9 35.1h7.4v18.1h-7.4z" fill="none" stroke="#242c88" stroke-width="2" stroke-linecap="round" stroke-linejoin="round" stroke-miterlimit="10" class="stroke-242c88"></path></svg>